<?xml version="1.0" encoding="UTF-8"?>
<svg width="30px" height="30px" viewBox="0 0 30 30" version="1.1" xmlns="http://www.w3.org/2000/svg" xmlns:xlink="http://www.w3.org/1999/xlink">
    <title>Group</title>
    <g id="Page-1" stroke="none" stroke-width="1" fill="none" fill-rule="evenodd">
        <g id="iPhone-13" transform="translate(-134, -780)" fill="#318AF2" fill-rule="nonzero">
            <g id="Group" transform="translate(134, 780)">
                <path d="M8.07692308,4.61538462 C8.07692308,2.06637808 10.1433012,0 12.6923077,0 L17.3076923,0 C19.8566988,0 21.9230769,2.06637808 21.9230769,4.61538462 L21.9230769,4.93076923 C23.3584615,5.06153846 24.78,5.23384615 26.1907692,5.44461538 C28.4276923,5.78 30,7.72615385 30,9.93230769 L30,14.5984615 C30,16.4615385 28.8707692,18.2169231 27.0215385,18.8323077 C23.1443599,20.1192686 19.0851886,20.7732866 15,20.7692495 C10.8,20.7692495 6.75846154,20.0892308 2.97846154,18.8323077 C1.12923077,18.2169231 0,16.4615385 0,14.5984615 L0,9.93230769 C0,7.72615385 1.57230769,5.77846154 3.80923077,5.44461538 C5.2266005,5.23264744 6.64974743,5.06129521 8.07692308,4.93076923 L8.07692308,4.61538462 Z M19.6153846,4.61538462 L19.6153846,4.75384615 C16.5412936,4.56714907 13.4587064,4.56714907 10.3846154,4.75384615 L10.3846154,4.61538462 C10.3846154,3.34088135 11.4178044,2.30769231 12.6923077,2.30769231 L17.3076923,2.30769231 C18.5821956,2.30769231 19.6153846,3.34088135 19.6153846,4.61538462 L19.6153846,4.61538462 Z M15,17.3076923 C15.6372516,17.3076923 16.1538462,16.7910978 16.1538462,16.1538462 C16.1538462,15.5165945 15.6372516,15 15,15 C14.3627484,15 13.8461538,15.5165945 13.8461538,16.1538462 C13.8461538,16.7910978 14.3627484,17.3076923 15,17.3076923 Z" id="Shape"></path>
                <path d="M1.15384615,24.8461538 L1.15384615,20.5446154 C1.50433559,20.7363869 1.87147693,20.8960136 2.25076923,21.0215385 C6.36259585,22.3867293 10.6674662,23.0807448 15,23.0769231 C19.4492308,23.0769231 23.7384615,22.3569231 27.7492308,21.0230769 C28.1369231,20.8938462 28.5030769,20.7323077 28.8461538,20.5446154 L28.8461538,24.8461538 C28.8461538,27.08 27.2353846,29.0430769 24.9646154,29.3430769 C21.7030769,29.7769231 18.3769231,30.0000015 15,30.0000015 C11.6676208,30.0006568 8.33883671,29.7812048 5.03538462,29.3430769 C2.76461538,29.0430769 1.15384615,27.08 1.15384615,24.8461538 Z" id="Path"></path>
            </g>
        </g>
    </g>
</svg>