<?xml version="1.0" encoding="UTF-8"?>
<svg width="30px" height="28px" viewBox="0 0 30 28" version="1.1" xmlns="http://www.w3.org/2000/svg" xmlns:xlink="http://www.w3.org/1999/xlink">
    <title>Group</title>
    <g id="Page-1" stroke="none" stroke-width="1" fill="none" fill-rule="evenodd" opacity="1">
        <g id="iPhone-13" transform="translate(-238, -783)" fill="#000000" fill-rule="nonzero">
            <g id="Group" transform="translate(238, 783)">
                <path d="M0.0353846154,4.03846168 C1.29900468,2.92082822 2.92842481,2.30507489 4.61538462,2.30769245 L25.3846154,2.30769245 C27.14,2.30769245 28.7430769,2.96153861 29.9646154,4.03846168 C29.6738347,1.73046129 27.7108611,-0.000410644899 25.3846154,7.30789225e-08 L4.61538462,7.30789225e-08 C2.28913891,-0.000410644899 0.326165296,1.73046129 0.0353846154,4.03846168 Z M0.0353846154,8.6538463 C1.29900468,7.53621283 2.92842481,6.92045951 4.61538462,6.92307707 L25.3846154,6.92307707 C27.14,6.92307707 28.7430769,7.57692322 29.9646154,8.6538463 C29.6738347,6.3458459 27.7108611,4.61497397 25.3846154,4.61538469 L4.61538462,4.61538469 C2.28913891,4.61497397 0.326165296,6.3458459 0.0353846154,8.6538463 Z M4.61538462,9.23076938 C2.06637808,9.23076938 0,11.2971475 0,13.846154 L0,23.0769232 C0,25.6259298 2.06637808,27.6923078 4.61538462,27.6923078 L25.3846154,27.6923078 C27.9336219,27.6923078 30,25.6259298 30,23.0769232 L30,13.846154 C30,11.2971475 27.9336219,9.23076938 25.3846154,9.23076938 L19.6153846,9.23076938 C18.978133,9.23076938 18.4615385,9.7473639 18.4615385,10.3846155 C18.4615385,12.2963704 16.9117549,13.846154 15,13.846154 C13.0882451,13.846154 11.5384615,12.2963704 11.5384615,10.3846155 C11.5384615,9.7473639 11.021867,9.23076938 10.3846154,9.23076938 L4.61538462,9.23076938 Z" id="Shape"></path>
            </g>
        </g>
    </g>
</svg>