<?xml version="1.0" encoding="UTF-8"?>
<svg width="30px" height="28px" viewBox="0 0 30 28" version="1.1" xmlns="http://www.w3.org/2000/svg" xmlns:xlink="http://www.w3.org/1999/xlink">
    <title>Group</title>
    <g id="Page-1" stroke="none" stroke-width="1" fill="none" fill-rule="evenodd" opacity="1">
        <g id="iPhone-13" transform="translate(-33, -781)" fill="#000000" fill-rule="nonzero">
            <g id="Group" transform="translate(33, 781)">
                <path d="M25.0083381,2.07887272 C25.5645547,1.876899 25.8517254,1.26226425 25.6497517,0.706047583 C25.447778,0.149830912 24.8331432,-0.137339746 24.2769265,0.0646339676 L6.42877129,6.55448264 L6.42877129,1.07175334 C6.42877129,0.480033478 5.94908756,0.000349752237 5.3573677,0.000349752237 L3.21456052,0.000349752237 C2.62284066,0.000349752237 2.14315693,0.480033478 2.14315693,1.07175334 L2.14315693,8.11444627 L0.706047583,8.63586268 C0.149830912,8.83783639 -0.137339746,9.45247114 0.0646339676,10.0086878 C0.266607681,10.5649045 0.881242428,10.8520751 1.4374591,10.6501014 L25.0083381,2.07887272 Z" id="Path"></path>
                <path d="M2.17029915,12.6643402 L23.5712287,4.8816645 L23.5712287,9.77155049 L29.2939524,11.851502 C29.8501691,12.0534757 30.1373397,12.6681104 29.935366,13.2243271 C29.7333923,13.7805438 29.1187576,14.0677144 28.5625409,13.8657407 L27.8568431,13.6086039 L27.8568431,25.7154644 L28.9282467,25.7154644 C29.5199665,25.7154644 29.9996502,26.1951482 29.9996502,26.786868 C29.9996502,27.3785879 29.5199665,27.8582716 28.9282467,27.8582716 L1.07175334,27.8582716 C0.480033478,27.8582716 0.000349752237,27.3785879 0.000349752237,26.786868 C0.000349752237,26.1951482 0.480033478,25.7154644 1.07175334,25.7154644 L2.14315693,25.7154644 L2.14315693,12.6743399 L2.17029915,12.6657687 L2.17029915,12.6643402 Z M23.5712287,25.7140359 L23.5712287,12.0500688 L25.7140359,12.8286221 L25.7140359,25.7140359 L23.5712287,25.7140359 Z M10.7143856,17.1428072 C10.1226658,17.1428072 9.64298205,17.6224909 9.64298205,18.2142108 L9.64298205,24.6426323 C9.64298205,25.2340471 10.1229709,25.7140359 10.7143856,25.7140359 L15,25.7140359 C15.5917199,25.7140359 16.0714036,25.2343522 16.0714036,24.6426323 L16.0714036,18.2142108 C16.0714036,17.6224909 15.5917199,17.1428072 15,17.1428072 L10.7143856,17.1428072 Z" id="Shape"></path>
            </g>
        </g>
    </g>
</svg>