<?xml version="1.0" encoding="UTF-8"?>
<svg width="24px" height="30px" viewBox="0 0 24 30" version="1.1" xmlns="http://www.w3.org/2000/svg" xmlns:xlink="http://www.w3.org/1999/xlink">
    <title>Group</title>
    <g id="Page-1" stroke="none" stroke-width="1" fill="none" fill-rule="evenodd" opacity="1">
        <g id="iPhone-13" transform="translate(-322, -783)" fill="#000000" fill-rule="nonzero">
            <g id="Group" transform="translate(322, 783)">
                <path d="M5.35604115,6.42856099 C5.35604115,2.87816479 8.23420594,0 11.7846021,0 C15.3349983,0 18.2131631,2.87816479 18.2131631,6.42856099 C18.2131631,9.97895719 15.3349983,12.857122 11.7846021,12.857122 C8.23420594,12.857122 5.35604115,9.97895719 5.35604115,6.42856099 L5.35604115,6.42856099 Z M0.000163997299,26.5785283 C0.100564438,20.141797 5.34709055,14.9763306 11.7846021,14.9763306 C18.2221137,14.9763306 23.4686398,20.141797 23.5690403,26.5785283 C23.5764623,27.0041041 23.3314202,27.3938163 22.944584,27.5713838 C19.4434022,29.1766773 15.636253,30.005166 11.7846021,29.9999758 C7.8046086,29.9999758 4.02318617,29.1313813 0.624620257,27.5713838 C0.237784086,27.3938163 -0.00725797477,27.0041041 0.000163997299,26.5785283 L0.000163997299,26.5785283 Z" id="Shape"></path>
            </g>
        </g>
    </g>
</svg>